<svg width="124" height="64" viewBox="0 0 124 64" fill="none" xmlns="http://www.w3.org/2000/svg">
<path d="M3.03448 25.5172H40.4138L21.5632 53.5172H38.9425V63.2644H0L18.8046 35.2184H3.03448V25.5172Z" fill="black"/>
<path d="M71.1006 25.5172H86.9167L69.1236 43.5402L88.7557 63.2644H72.5718L57.9971 48.092V63.2644H44.0201V0H57.9971V38.6667L71.1006 25.5172Z" fill="black"/>
<path d="M118.944 64C118.012 64 117.178 63.8529 116.443 63.5586C115.707 63.3134 115.069 62.872 114.53 62.2345C114.04 61.5479 113.574 60.5916 113.132 59.3655L107.321 42.9609C107.027 42.0782 106.683 41.0728 106.291 39.9448C105.899 38.7678 105.482 37.5663 105.04 36.3402C104.648 35.1142 104.28 33.9617 103.937 32.8828C103.643 31.8038 103.397 30.872 103.201 30.0874H102.907C102.564 31.8529 102.024 33.8881 101.289 36.1931C100.602 38.4981 99.94 40.6314 99.3024 42.5931L92.5346 63.2644H85.6197L100.038 23.6874L98.1254 18.7586C97.3408 16.6008 96.2128 14.9824 94.7415 13.9035C93.3193 12.8245 91.4312 12.2851 89.0772 12.2851C88.1944 12.2851 87.4097 12.3341 86.7231 12.4322C86.0856 12.5303 85.4971 12.6284 84.9576 12.7264V7.57701C85.399 7.42988 85.8649 7.3318 86.3553 7.28276C86.8948 7.18467 87.4588 7.11111 88.0473 7.06207C88.6358 7.01303 89.2488 6.9885 89.8864 6.9885C92.4365 6.9885 94.6189 7.40536 96.4335 8.23908C98.2971 9.0728 99.891 10.3724 101.215 12.1379C102.588 13.9034 103.79 16.1839 104.82 18.9793L118.797 56.1287C119.091 56.8153 119.336 57.3548 119.532 57.7471C119.729 58.0904 119.949 58.3356 120.194 58.4828C120.489 58.6299 120.807 58.7034 121.151 58.7034C121.543 58.7034 121.911 58.6544 122.254 58.5563C122.597 58.4582 122.892 58.3847 123.137 58.3356V63.1172C122.794 63.2644 122.401 63.4115 121.96 63.5586C121.519 63.7057 121.053 63.8038 120.562 63.8529C120.072 63.951 119.532 64 118.944 64Z" fill="black"/>
</svg>
