<svg id="Layer_1" data-name="Layer 1" xmlns="http://www.w3.org/2000/svg" viewBox="0 0 1125 1446.43"><polygon points="642.86 0 642.86 160.71 642.86 321.43 482.14 321.43 482.14 160.71 482.14 0 0 0 0 160.71 0 964.29 0 1125 160.71 1125 642.86 1125 803.57 1125 803.57 803.57 803.57 642.86 642.86 642.86 321.43 642.86 321.43 803.57 642.86 803.57 642.86 964.29 160.71 964.29 160.71 160.71 321.43 160.71 321.43 321.43 321.43 482.14 482.14 482.14 642.86 482.14 803.57 482.14 803.57 321.43 803.57 160.71 964.29 160.71 964.29 1285.71 0 1285.71 0 1446.43 964.29 1446.43 1125 1446.43 1125 1285.71 1125 160.71 1125 0 642.86 0"/></svg>