<svg xmlns="http://www.w3.org/2000/svg" width="24" height="25" viewBox="0 0 24 25" fill="none">
  <g clip-path="url(#clip0_655_10550)">
    <path fill-rule="evenodd" clip-rule="evenodd" d="M8.29279 13.207C8.10532 13.0194 8 12.7651 8 12.5C8 12.2348 8.10532 11.9805 8.29279 11.793L13.9498 6.13598C14.042 6.04047 14.1524 5.96428 14.2744 5.91188C14.3964 5.85947 14.5276 5.83188 14.6604 5.83073C14.7932 5.82957 14.9248 5.85487 15.0477 5.90516C15.1706 5.95544 15.2823 6.02969 15.3762 6.12358C15.4701 6.21747 15.5443 6.32913 15.5946 6.45202C15.6449 6.57492 15.6702 6.7066 15.669 6.83938C15.6679 6.97216 15.6403 7.10338 15.5879 7.22538C15.5355 7.34739 15.4593 7.45773 15.3638 7.54998L10.4138 12.5L15.3638 17.45C15.5459 17.6386 15.6467 17.8912 15.6445 18.1534C15.6422 18.4156 15.537 18.6664 15.3516 18.8518C15.1662 19.0372 14.9154 19.1424 14.6532 19.1447C14.391 19.1469 14.1384 19.0461 13.9498 18.864L8.29279 13.207Z" fill="#A9A6A9"/>
  </g>
  <defs>
    <clipPath id="clip0_655_10550">
      <rect width="24" height="24" fill="white" transform="translate(0 0.5)"/>
    </clipPath>
  </defs>
</svg>