<svg width="32" height="33" viewBox="0 0 32 33" fill="none" xmlns="http://www.w3.org/2000/svg">
<circle cx="16" cy="16.9619" r="15" fill="#762592" stroke="#FEFAFF" stroke-width="2"/>
<path d="M13.3658 24.8644V23.1084H10.7317V21.3523H12.4878V12.5718H10.7317V10.8157H13.3658V9.05957H15.1219V10.8157H16.878V9.05957H18.6341V10.9254C19.3951 11.1303 20.0244 11.5439 20.5219 12.1661C21.0195 12.7884 21.2683 13.5089 21.2683 14.3279C21.2683 14.7523 21.1951 15.1585 21.0488 15.5466C20.9024 15.9347 20.6975 16.2821 20.4341 16.5888C20.9463 16.8962 21.3599 17.3132 21.6748 17.8401C21.9897 18.3669 22.1469 18.9523 22.1463 19.5962C22.1463 20.562 21.8024 21.3888 21.1146 22.0766C20.4268 22.7644 19.6 23.1084 18.6341 23.1084V24.8644H16.878V23.1084H15.1219V24.8644H13.3658ZM14.2439 16.084H17.7561C18.239 16.084 18.6526 15.9119 18.9968 15.5677C19.341 15.2235 19.5128 14.8102 19.5122 14.3279C19.5122 13.8449 19.3401 13.4314 18.9959 13.0872C18.6517 12.743 18.2384 12.5712 17.7561 12.5718H14.2439V16.084ZM14.2439 21.3523H18.6341C19.1171 21.3523 19.5306 21.1802 19.8748 20.836C20.219 20.4918 20.3908 20.0785 20.3902 19.5962C20.3902 19.1132 20.2181 18.6997 19.8739 18.3555C19.5297 18.0113 19.1165 17.8395 18.6341 17.8401H14.2439V21.3523Z" fill="#270C31"/>
</svg>
