<svg width="32" height="33" viewBox="0 0 32 33" fill="none" xmlns="http://www.w3.org/2000/svg">
<circle cx="16" cy="16.7231" r="15" fill="#D065F5" stroke="#FEFAFF" stroke-width="2"/>
<path d="M12.5844 18.2756L15.6892 21.3795C15.7715 21.4618 15.8831 21.5081 15.9996 21.5081C16.116 21.5081 16.2276 21.4618 16.3099 21.3795L19.4147 18.2756C19.4971 18.1933 19.6087 18.1471 19.7251 18.1471C19.8415 18.1471 19.9532 18.1933 20.0355 18.2756L21.4017 19.641C21.4841 19.7233 21.5303 19.835 21.5303 19.9514C21.5303 20.0678 21.4841 20.1794 21.4017 20.2618L16.3099 25.3536C16.2276 25.4359 16.116 25.4821 15.9996 25.4821C15.8831 25.4821 15.7715 25.4359 15.6892 25.3536L10.5982 20.2618C10.5159 20.1794 10.4697 20.0678 10.4697 19.9514C10.4697 19.835 10.5159 19.7233 10.5982 19.641L11.9645 18.2756C12.0468 18.1933 12.1585 18.1471 12.2749 18.1471C12.3913 18.1471 12.5029 18.1933 12.5853 18.2756H12.5844ZM23.2035 14.9961L23.2641 15.047L24.6303 16.4124C24.7031 16.4851 24.748 16.5809 24.7573 16.6833C24.7666 16.7856 24.7397 16.888 24.6813 16.9726L24.6303 17.0341L23.2641 18.3994C23.1914 18.4722 23.0956 18.5171 22.9932 18.5264C22.8909 18.5357 22.7885 18.5088 22.7039 18.4504L22.6433 18.3994L21.2771 17.0332C21.2047 16.9605 21.1601 16.8647 21.1509 16.7626C21.1418 16.6604 21.1687 16.5583 21.227 16.4739L21.2771 16.4124L22.6433 15.047C22.7067 14.9837 22.7879 14.9412 22.8761 14.9253C22.9644 14.9095 23.0553 14.921 23.1368 14.9584L23.2035 14.9961ZM9.35668 15.047L10.7229 16.4124C10.8052 16.4947 10.8515 16.6064 10.8515 16.7228C10.8515 16.8392 10.8052 16.9509 10.7229 17.0332L9.35668 18.4003C9.27435 18.4826 9.1627 18.5289 9.04629 18.5289C8.92987 18.5289 8.81823 18.4826 8.7359 18.4003L7.36877 17.0332C7.28647 16.9509 7.24023 16.8392 7.24023 16.7228C7.24023 16.6064 7.28647 16.4947 7.36877 16.4124L8.73502 15.047C8.81735 14.9647 8.929 14.9185 9.04541 14.9185C9.16182 14.9185 9.27435 14.9647 9.35668 15.047ZM16.2494 14.9961L16.3108 15.047L17.6762 16.4124C17.7489 16.4851 17.7938 16.5809 17.8032 16.6833C17.8125 16.7856 17.7856 16.888 17.7271 16.9726L17.6762 17.0341L16.3108 18.3994C16.2382 18.4722 16.1423 18.5171 16.04 18.5264C15.9376 18.5357 15.8352 18.5088 15.7506 18.4504L15.6892 18.3994L14.3238 17.0332C14.2513 16.9606 14.2065 16.8649 14.1972 16.7627C14.1879 16.6606 14.2147 16.5584 14.2729 16.4739L14.3238 16.4124L15.6892 15.047C15.7525 14.9837 15.8338 14.9412 15.922 14.9253C16.0102 14.9095 16.1012 14.921 16.1826 14.9584L16.2494 14.9961ZM16.3108 8.0929L21.4017 13.1838C21.4841 13.2662 21.5303 13.3778 21.5303 13.4942C21.5303 13.6106 21.4841 13.7223 21.4017 13.8046L20.0355 15.1708C19.9532 15.2532 19.8415 15.2994 19.7251 15.2994C19.6087 15.2994 19.4971 15.2532 19.4147 15.1708L16.3108 12.0669C16.27 12.0261 16.2216 11.9936 16.1683 11.9715C16.1149 11.9494 16.0577 11.938 16 11.938C15.9422 11.938 15.8851 11.9494 15.8317 11.9715C15.7784 11.9936 15.7299 12.0261 15.6892 12.0669L12.5853 15.1708C12.5029 15.2532 12.3913 15.2994 12.2749 15.2994C12.1585 15.2994 12.0468 15.2532 11.9645 15.1708L10.5982 13.8046C10.5159 13.7223 10.4697 13.6106 10.4697 13.4942C10.4697 13.3778 10.5159 13.2662 10.5982 13.1838L15.6892 8.0929C15.7715 8.01059 15.8831 7.96436 15.9996 7.96436C16.116 7.96436 16.2285 8.01059 16.3108 8.0929Z" fill="#270C31"/>
</svg>
