<svg width="24" height="25" viewBox="0 0 24 25" fill="none" xmlns="http://www.w3.org/2000/svg">
<path fill-rule="evenodd" clip-rule="evenodd" d="M11.9996 15.0337L17.3026 20.3377C17.584 20.6191 17.9657 20.7772 18.3636 20.7772C18.7616 20.7772 19.1432 20.6191 19.4246 20.3377C19.706 20.0563 19.8641 19.6747 19.8641 19.2767C19.8641 18.8788 19.706 18.4971 19.4246 18.2157L14.1196 12.9127L19.4236 7.60971C19.5629 7.47038 19.6733 7.30498 19.7487 7.12295C19.824 6.94093 19.8628 6.74585 19.8627 6.54885C19.8627 6.35185 19.8238 6.15679 19.7484 5.97481C19.673 5.79282 19.5624 5.62747 19.4231 5.48821C19.2838 5.34894 19.1184 5.23848 18.9364 5.16314C18.7543 5.08779 18.5592 5.04903 18.3623 5.04908C18.1653 5.04913 17.9702 5.08797 17.7882 5.16341C17.6062 5.23884 17.4409 5.34938 17.3016 5.48871L11.9996 10.7917L6.6966 5.48871C6.5583 5.34538 6.39284 5.23103 6.20987 5.15233C6.0269 5.07363 5.83009 5.03216 5.63092 5.03034C5.43176 5.02851 5.23422 5.06637 5.04984 5.14171C4.86546 5.21704 4.69793 5.32834 4.55703 5.46911C4.41612 5.60989 4.30466 5.77731 4.22916 5.96162C4.15365 6.14593 4.1156 6.34343 4.11724 6.5426C4.11887 6.74176 4.16016 6.93861 4.23869 7.12166C4.31721 7.3047 4.43141 7.47027 4.5746 7.60871L9.8796 12.9127L4.5756 18.2157C4.29421 18.4971 4.13612 18.8788 4.13612 19.2767C4.13612 19.6747 4.29421 20.0563 4.5756 20.3377C4.857 20.6191 5.23865 20.7772 5.6366 20.7772C6.03456 20.7772 6.41621 20.6191 6.6976 20.3377L11.9996 15.0327V15.0337Z" fill="#1A1A1B"/>
</svg>
