<svg width="17" height="17" viewBox="0 0 17 17" fill="none" xmlns="http://www.w3.org/2000/svg">
<g clip-path="url(#clip0_1419_3944)">
<path fill-rule="evenodd" clip-rule="evenodd" d="M6.49967 2.12909C6.14605 2.12909 5.80691 2.26957 5.55687 2.51961C5.30682 2.76966 5.16634 3.1088 5.16634 3.46242V4.79576H6.49967V3.46242H13.833V10.7958H12.4997V12.1291H13.833C14.1866 12.1291 14.5258 11.9886 14.7758 11.7386C15.0259 11.4885 15.1663 11.1494 15.1663 10.7958V3.46242C15.1663 3.1088 15.0259 2.76966 14.7758 2.51961C14.5258 2.26957 14.1866 2.12909 13.833 2.12909H6.49967ZM3.16634 5.46242C2.81272 5.46242 2.47358 5.6029 2.22353 5.85295C1.97348 6.103 1.83301 6.44213 1.83301 6.79576V14.1291C1.83301 14.4827 1.97348 14.8218 2.22353 15.0719C2.47358 15.3219 2.81272 15.4624 3.16634 15.4624H10.4997C10.8533 15.4624 11.1924 15.3219 11.4425 15.0719C11.6925 14.8218 11.833 14.4827 11.833 14.1291V6.79576C11.833 6.44213 11.6925 6.103 11.4425 5.85295C11.1924 5.6029 10.8533 5.46242 10.4997 5.46242H3.16634ZM3.16634 6.79576H10.4997V14.1291H3.16634V6.79576Z" fill="#C9AFEE"/>
</g>
<defs>
<clipPath id="clip0_1419_3944">
<rect width="16" height="16" fill="white" transform="translate(0.5 0.795776)"/>
</clipPath>
</defs>
</svg>
