<svg width="16" height="16" viewBox="0 0 16 16" fill="none" xmlns="http://www.w3.org/2000/svg">
<path d="M9.33301 5.3335H2.66634C1.93101 5.3335 1.33301 5.9315 1.33301 6.66683V13.3335C1.33301 14.0688 1.93101 14.6668 2.66634 14.6668H9.33301C10.0683 14.6668 10.6663 14.0688 10.6663 13.3335V6.66683C10.6663 5.9315 10.0683 5.3335 9.33301 5.3335Z" fill="#DC8BF8"/>
<path d="M13.333 1.3335H6.66634C6.31272 1.3335 5.97358 1.47397 5.72353 1.72402C5.47348 1.97407 5.33301 2.31321 5.33301 2.66683V4.00016H10.6663C11.02 4.00016 11.3591 4.14064 11.6091 4.39069C11.8592 4.64074 11.9997 4.97987 11.9997 5.3335V10.6668H13.333C13.6866 10.6668 14.0258 10.5264 14.2758 10.2763C14.5259 10.0263 14.6663 9.68712 14.6663 9.3335V2.66683C14.6663 2.31321 14.5259 1.97407 14.2758 1.72402C14.0258 1.47397 13.6866 1.3335 13.333 1.3335Z" fill="#DC8BF8"/>
</svg>
