<svg width="16" height="17" viewBox="0 0 16 17" fill="none" xmlns="http://www.w3.org/2000/svg">
<path d="M7.99952 1.18262C9.85617 1.18262 11.6368 1.92017 12.9496 3.23302C14.2625 4.54586 15 6.32647 15 8.18312C15 10.0398 14.2625 11.8204 12.9496 13.1332C11.6368 14.4461 9.85617 15.1836 7.99952 15.1836C6.14288 15.1836 4.36227 14.4461 3.04942 13.1332C1.73657 11.8204 0.999023 10.0398 0.999023 8.18312C0.999023 6.32647 1.73657 4.54586 3.04942 3.23302C4.36227 1.92017 6.14288 1.18262 7.99952 1.18262ZM9.04952 5.48062C9.56952 5.48062 9.99152 5.11962 9.99152 4.58462C9.99152 4.04962 9.56852 3.68862 9.04952 3.68862C8.52952 3.68862 8.10952 4.04962 8.10952 4.58462C8.10952 5.11962 8.52952 5.48062 9.04952 5.48062ZM9.23252 11.1076C9.23252 11.0006 9.26952 10.7226 9.24852 10.5646L8.42652 11.5106C8.25652 11.6896 8.04352 11.8136 7.94352 11.7806C7.89816 11.7639 7.86024 11.7316 7.83659 11.6894C7.81294 11.6473 7.80512 11.598 7.81452 11.5506L9.18452 7.22262C9.29652 6.67362 8.98852 6.17262 8.33552 6.10862C7.64652 6.10862 6.63252 6.80762 6.01552 7.69462C6.01552 7.80062 5.99552 8.06462 6.01652 8.22262L6.83752 7.27562C7.00752 7.09862 7.20552 6.97362 7.30552 7.00762C7.35479 7.0253 7.39516 7.06159 7.41797 7.10871C7.44078 7.15582 7.44421 7.21 7.42752 7.25962L6.06952 11.5666C5.91252 12.0706 6.20952 12.5646 6.92952 12.6766C7.98952 12.6766 8.61552 11.9946 9.23352 11.1076H9.23252Z" fill="#FEFAFF"/>
</svg>
