<svg width="170" height="48" viewBox="0 0 170 48" fill="none" xmlns="http://www.w3.org/2000/svg">
<path d="M34.1633 0.745117H38.1118V47.7451H34.1633V0.745117Z" fill="white"/>
<path d="M2.47437 4.74731L2.47437 0.745117L22.318 0.745116L22.318 4.7473L2.47437 4.74731Z" fill="white"/>
<path d="M27.4304 0.745117H31.3789V40.9209H27.4304V0.745117Z" fill="white"/>
<path d="M0.499996 0.745117H4.44849V47.7451H0.499996V0.745117Z" fill="white"/>
<path d="M7.23291 7.56909H11.1814V47.7448H7.23291V7.56909Z" fill="white"/>
<path d="M13.9656 7.56909H17.9141V40.9206H13.9656V7.56909Z" fill="white"/>
<path d="M20.6977 0.745117H24.6462V40.9209H20.6977V0.745117Z" fill="white"/>
<path d="M7.2832 11.5713L7.2832 7.56909L17.9137 7.56909L17.9137 11.5713L7.2832 11.5713Z" fill="white"/>
<path d="M20.7488 40.9206L20.7488 36.9185L31.3793 36.9185L31.3793 40.9206L20.7488 40.9206Z" fill="white"/>
<path d="M27.4307 40.9206L27.4307 36.9185L31.3792 36.9185L31.3792 40.9206L27.4307 40.9206Z" fill="white"/>
<path d="M13.9651 47.7446L13.9651 43.7424L37.251 43.7424L37.251 47.7446L13.9651 47.7446Z" fill="white"/>
<path fill-rule="evenodd" clip-rule="evenodd" d="M64.4687 13.2134V28.6038L53.4816 13.2134H49.5015V35.3279H53.4816V19.9377L64.4687 35.3279H68.4485V13.2134H64.4687Z" fill="white"/>
<path fill-rule="evenodd" clip-rule="evenodd" d="M89.1568 13.2134V32.9803H78.1697V13.2134H74.1897V35.3279H93.1369V13.2134H89.1568Z" fill="white"/>
<path fill-rule="evenodd" clip-rule="evenodd" d="M97.7302 13.2134V35.3279H112.121L113.232 32.9803H101.777V13.2134H97.7302Z" fill="white"/>
<path fill-rule="evenodd" clip-rule="evenodd" d="M116.104 35.3279H120.123V13.2134H116.104V35.3279Z" fill="white"/>
<path fill-rule="evenodd" clip-rule="evenodd" d="M141.406 13.2134V28.6038L130.418 13.2134H126.438V35.3279H130.418V19.9377L141.406 35.3279H145.385V13.2134H141.406Z" fill="white"/>
<path fill-rule="evenodd" clip-rule="evenodd" d="M164.634 13.2134L157.625 22.952H153.927V13.2134H149.979V35.3279H153.927V25.2995H157.625L164.856 35.3279H169.5L161.353 24.1113L169.222 13.2134H164.634Z" fill="white"/>
</svg>
