<svg width="25" height="25" viewBox="0 0 25 25" fill="none" xmlns="http://www.w3.org/2000/svg">
<path d="M12.5 17.2451C11.1167 17.2451 9.93767 16.7575 8.963 15.7821C7.98833 14.8068 7.50067 13.6278 7.5 12.2451C7.5 10.8618 7.98767 9.68278 8.963 8.70812C9.93833 7.73345 11.1173 7.24578 12.5 7.24512C13.8833 7.24512 15.0627 7.73278 16.038 8.70812C17.0133 9.68345 17.5007 10.8625 17.5 12.2451C17.5 13.6285 17.0123 14.8078 16.037 15.7831C15.0617 16.7585 13.8827 17.2458 12.5 17.2451ZM5.5 13.2451H1.5V11.2451H5.5V13.2451ZM23.5 13.2451H19.5V11.2451H23.5V13.2451ZM11.5 5.24512V1.24512H13.5V5.24512H11.5ZM11.5 23.2451V19.2451H13.5V23.2451H11.5ZM6.9 7.99512L4.375 5.57012L5.8 4.09512L8.2 6.59512L6.9 7.99512ZM19.2 20.3951L16.775 17.8701L18.1 16.4951L20.625 18.9201L19.2 20.3951ZM16.75 6.64512L19.175 4.12012L20.65 5.54512L18.15 7.94512L16.75 6.64512ZM4.35 18.9451L6.875 16.5201L8.25 17.8451L5.825 20.3701L4.35 18.9451Z" fill="#FEFAFF"/>
</svg>
