<svg width="24" height="25" viewBox="0 0 24 25" fill="none" xmlns="http://www.w3.org/2000/svg">
<path fill-rule="evenodd" clip-rule="evenodd" d="M12.0001 15.0337L17.3031 20.3377C17.5845 20.6191 17.9661 20.7772 18.3641 20.7772C18.762 20.7772 19.1437 20.6191 19.4251 20.3377C19.7065 20.0563 19.8646 19.6747 19.8646 19.2767C19.8646 18.8788 19.7065 18.4971 19.4251 18.2157L14.1201 12.9127L19.4241 7.60971C19.5634 7.47038 19.6738 7.30498 19.7492 7.12295C19.8245 6.94093 19.8633 6.74585 19.8632 6.54885C19.8632 6.35185 19.8243 6.15679 19.7489 5.97481C19.6735 5.79282 19.5629 5.62747 19.4236 5.48821C19.2843 5.34894 19.1189 5.23848 18.9368 5.16314C18.7548 5.08779 18.5597 5.04903 18.3627 5.04908C18.1657 5.04913 17.9707 5.08797 17.7887 5.16341C17.6067 5.23884 17.4414 5.34938 17.3021 5.48871L12.0001 10.7917L6.69709 5.48871C6.55879 5.34538 6.39333 5.23103 6.21036 5.15233C6.02739 5.07363 5.83058 5.03216 5.63141 5.03034C5.43224 5.02851 5.23471 5.06637 5.05033 5.14171C4.86595 5.21704 4.69842 5.32834 4.55752 5.46911C4.41661 5.60989 4.30515 5.77731 4.22964 5.96162C4.15414 6.14593 4.11609 6.34343 4.11773 6.5426C4.11936 6.74176 4.16065 6.93861 4.23917 7.12166C4.3177 7.3047 4.43189 7.47027 4.57509 7.60871L9.88009 12.9127L4.57609 18.2157C4.2947 18.4971 4.13661 18.8788 4.13661 19.2767C4.13661 19.6747 4.2947 20.0563 4.57609 20.3377C4.85749 20.6191 5.23914 20.7772 5.63709 20.7772C6.03504 20.7772 6.4167 20.6191 6.69809 20.3377L12.0001 15.0327V15.0337Z" fill="#FEFAFF"/>
</svg>
