<svg width="17" height="17" viewBox="0 0 17 17" fill="none" xmlns="http://www.w3.org/2000/svg">
<g clip-path="url(#clip0_1419_3205)">
<path fill-rule="evenodd" clip-rule="evenodd" d="M6.49967 2.2251C6.14605 2.2251 5.80691 2.36557 5.55687 2.61562C5.30682 2.86567 5.16634 3.20481 5.16634 3.55843V4.89176H6.49967V3.55843H13.833V10.8918H12.4997V12.2251H13.833C14.1866 12.2251 14.5258 12.0846 14.7758 11.8346C15.0259 11.5845 15.1663 11.2454 15.1663 10.8918V3.55843C15.1663 3.20481 15.0259 2.86567 14.7758 2.61562C14.5258 2.36557 14.1866 2.2251 13.833 2.2251H6.49967ZM3.16634 5.55843C2.81272 5.55843 2.47358 5.69891 2.22353 5.94896C1.97348 6.199 1.83301 6.53814 1.83301 6.89176V14.2251C1.83301 14.5787 1.97348 14.9179 2.22353 15.1679C2.47358 15.418 2.81272 15.5584 3.16634 15.5584H10.4997C10.8533 15.5584 11.1924 15.418 11.4425 15.1679C11.6925 14.9179 11.833 14.5787 11.833 14.2251V6.89176C11.833 6.53814 11.6925 6.199 11.4425 5.94896C11.1924 5.69891 10.8533 5.55843 10.4997 5.55843H3.16634ZM3.16634 6.89176H10.4997V14.2251H3.16634V6.89176Z" fill="#706E70"/>
</g>
<defs>
<clipPath id="clip0_1419_3205">
<rect width="16" height="16" fill="white" transform="translate(0.5 0.891602)"/>
</clipPath>
</defs>
</svg>
