<svg width="24" height="25" viewBox="0 0 24 25" fill="none" xmlns="http://www.w3.org/2000/svg">
<path d="M12 22.9131C10.6167 22.9131 9.31667 22.6504 8.1 22.1251C6.88333 21.5998 5.825 20.8874 4.925 19.9881C4.025 19.0881 3.31267 18.0298 2.788 16.8131C2.26333 15.5964 2.00067 14.2964 2 12.9131C2 11.5298 2.26267 10.2298 2.788 9.01309C3.31333 7.79642 4.02567 6.73809 4.925 5.83809C5.825 4.93809 6.88333 4.22575 8.1 3.70109C9.31667 3.17642 10.6167 2.91375 12 2.91309C13.3833 2.91309 14.6833 3.17575 15.9 3.70109C17.1167 4.22642 18.175 4.93875 19.075 5.83809C19.975 6.73809 20.6877 7.79642 21.213 9.01309C21.7383 10.2298 22.0007 11.5298 22 12.9131C22 14.2964 21.7373 15.5964 21.212 16.8131C20.6867 18.0298 19.9743 19.0881 19.075 19.9881C18.175 20.8881 17.1167 21.6008 15.9 22.1261C14.6833 22.6514 13.3833 22.9138 12 22.9131ZM12 20.9131C14.2333 20.9131 16.125 20.1381 17.675 18.5881C19.225 17.0381 20 15.1464 20 12.9131C20 12.7964 19.996 12.6754 19.988 12.5501C19.98 12.4248 19.9757 12.3208 19.975 12.2381C19.8917 12.7214 19.6667 13.1214 19.3 13.4381C18.9333 13.7548 18.5 13.9131 18 13.9131H16C15.45 13.9131 14.9793 13.7174 14.588 13.3261C14.1967 12.9348 14.0007 12.4638 14 11.9131V10.9131H10V8.91309C10 8.36309 10.196 7.89242 10.588 7.50109C10.98 7.10975 11.4507 6.91375 12 6.91309H13C13 6.52975 13.1043 6.19242 13.313 5.90109C13.5217 5.60975 13.7757 5.37209 14.075 5.18809C13.7417 5.10475 13.4043 5.03809 13.063 4.98809C12.7217 4.93809 12.3673 4.91309 12 4.91309C9.76667 4.91309 7.875 5.68809 6.325 7.23809C4.775 8.78809 4 10.6798 4 12.9131H9C10.1 12.9131 11.0417 13.3048 11.825 14.0881C12.6083 14.8714 13 15.8131 13 16.9131V17.9131H10V20.6631C10.3333 20.7464 10.6627 20.8091 10.988 20.8511C11.3133 20.8931 11.6507 20.9138 12 20.9131Z" fill="#FEFAFF"/>
</svg>
