<svg width="25" height="24" viewBox="0 0 25 24" fill="none" xmlns="http://www.w3.org/2000/svg">
<g clip-path="url(#clip0_1419_4568)">
<path d="M3.5 0V3H0.5V5H3.5V8H5.5V5H8.5V3H5.5V0H3.5ZM9.5 3V6H6.5V9H3.5V19C3.5 19.5304 3.71071 20.0391 4.08579 20.4142C4.46086 20.7893 4.96957 21 5.5 21H19.5C20.61 21 21.5 20.11 21.5 19V18H12.5C11.9696 18 11.4609 17.7893 11.0858 17.4142C10.7107 17.0391 10.5 16.5304 10.5 16V8C10.5 7.46957 10.7107 6.96086 11.0858 6.58579C11.4609 6.21071 11.9696 6 12.5 6H21.5V5C21.5 4.46957 21.2893 3.96086 20.9142 3.58579C20.5391 3.21071 20.0304 3 19.5 3H9.5ZM12.5 8V16H22.5V8H12.5ZM16.5 10.5C17.33 10.5 18 11.17 18 12C18 12.83 17.33 13.5 16.5 13.5C15.67 13.5 15 12.83 15 12C15 11.17 15.67 10.5 16.5 10.5Z" fill="#270C31"/>
</g>
<defs>
<clipPath id="clip0_1419_4568">
<rect width="24" height="24" fill="white" transform="translate(0.5)"/>
</clipPath>
</defs>
</svg>
