<svg width="16" height="16" viewBox="0 0 16 16" fill="none" xmlns="http://www.w3.org/2000/svg">
<path d="M7.99952 0.999512C9.85617 0.999512 11.6368 1.73706 12.9496 3.04991C14.2625 4.36276 15 6.14336 15 8.00001C15 9.85666 14.2625 11.6373 12.9496 12.9501C11.6368 14.263 9.85617 15.0005 7.99952 15.0005C6.14287 15.0005 4.36227 14.263 3.04942 12.9501C1.73657 11.6373 0.999023 9.85666 0.999023 8.00001C0.999023 6.14336 1.73657 4.36276 3.04942 3.04991C4.36227 1.73706 6.14287 0.999512 7.99952 0.999512ZM9.04952 5.29751C9.56952 5.29751 9.99152 4.93651 9.99152 4.40151C9.99152 3.86651 9.56852 3.50551 9.04952 3.50551C8.52952 3.50551 8.10952 3.86651 8.10952 4.40151C8.10952 4.93651 8.52952 5.29751 9.04952 5.29751ZM9.23252 10.9245C9.23252 10.8175 9.26952 10.5395 9.24852 10.3815L8.42652 11.3275C8.25652 11.5065 8.04352 11.6305 7.94352 11.5975C7.89816 11.5808 7.86024 11.5485 7.83659 11.5063C7.81294 11.4641 7.80512 11.4149 7.81452 11.3675L9.18452 7.03951C9.29652 6.49051 8.98852 5.98951 8.33552 5.92551C7.64652 5.92551 6.63252 6.62451 6.01552 7.51151C6.01552 7.61751 5.99552 7.88151 6.01652 8.03951L6.83752 7.09251C7.00752 6.91551 7.20552 6.79051 7.30552 6.82451C7.35479 6.8422 7.39516 6.87849 7.41797 6.9256C7.44078 6.97272 7.44421 7.0269 7.42752 7.07651L6.06952 11.3835C5.91252 11.8875 6.20952 12.3815 6.92952 12.4935C7.98952 12.4935 8.61552 11.8115 9.23352 10.9245H9.23252Z" fill="#A9A6A9"/>
</svg>
