<svg width="170" height="48" viewBox="0 0 170 48" fill="none" xmlns="http://www.w3.org/2000/svg">
<path d="M34.1633 0.5H38.1118V47.5H34.1633V0.5Z" fill="#180B2A"/>
<path d="M2.47437 4.50219L2.47437 0.5L22.318 0.499999L22.318 4.50219L2.47437 4.50219Z" fill="#180B2A"/>
<path d="M27.4304 0.5H31.3789V40.6757H27.4304V0.5Z" fill="#180B2A"/>
<path d="M0.499996 0.5H4.44849V47.5H0.499996V0.5Z" fill="#180B2A"/>
<path d="M7.23291 7.32397H11.1814V47.4997H7.23291V7.32397Z" fill="#180B2A"/>
<path d="M13.9656 7.32397H17.9141V40.6755H13.9656V7.32397Z" fill="#180B2A"/>
<path d="M20.6977 0.5H24.6462V40.6757H20.6977V0.5Z" fill="#180B2A"/>
<path d="M7.2832 11.3262L7.2832 7.32397L17.9137 7.32397L17.9137 11.3262L7.2832 11.3262Z" fill="#180B2A"/>
<path d="M20.7488 40.6755L20.7488 36.6733L31.3793 36.6733L31.3793 40.6755L20.7488 40.6755Z" fill="#180B2A"/>
<path d="M27.4307 40.6755L27.4307 36.6733L31.3792 36.6733L31.3792 40.6755L27.4307 40.6755Z" fill="#180B2A"/>
<path d="M13.9651 47.4995L13.9651 43.4973L37.251 43.4973L37.251 47.4995L13.9651 47.4995Z" fill="#180B2A"/>
<path fill-rule="evenodd" clip-rule="evenodd" d="M64.4687 12.9683V28.3586L53.4816 12.9683H49.5015V35.0828H53.4816V19.6925L64.4687 35.0828H68.4485V12.9683H64.4687Z" fill="#180B2A"/>
<path fill-rule="evenodd" clip-rule="evenodd" d="M89.1568 12.9683V32.7352H78.1697V12.9683H74.1897V35.0828H93.1369V12.9683H89.1568Z" fill="#180B2A"/>
<path fill-rule="evenodd" clip-rule="evenodd" d="M97.7302 12.9683V35.0828H112.121L113.232 32.7352H101.777V12.9683H97.7302Z" fill="#180B2A"/>
<path fill-rule="evenodd" clip-rule="evenodd" d="M116.104 35.0828H120.123V12.9683H116.104V35.0828Z" fill="#180B2A"/>
<path fill-rule="evenodd" clip-rule="evenodd" d="M141.406 12.9683V28.3586L130.418 12.9683H126.438V35.0828H130.418V19.6925L141.406 35.0828H145.385V12.9683H141.406Z" fill="#180B2A"/>
<path fill-rule="evenodd" clip-rule="evenodd" d="M164.634 12.9683L157.625 22.7069H153.927V12.9683H149.979V35.0828H153.927V25.0544H157.625L164.856 35.0828H169.5L161.353 23.8661L169.222 12.9683H164.634Z" fill="#180B2A"/>
</svg>
