<svg width="18" height="18" viewBox="0 0 18 18" fill="none" xmlns="http://www.w3.org/2000/svg">
<path d="M9 11C8.45 11 7.97933 10.8043 7.588 10.413C7.19667 10.0217 7.00067 9.55067 7 9C7 8.45 7.196 7.97933 7.588 7.588C7.98 7.19667 8.45067 7.00067 9 7C9.55 7 10.021 7.196 10.413 7.588C10.805 7.98 11.0007 8.45067 11 9C11 9.55 10.8043 10.021 10.413 10.413C10.0217 10.805 9.55067 11.0007 9 11ZM9 18C6.68333 18 4.675 17.2377 2.975 15.713C1.275 14.1883 0.3 12.284 0.05 10H2.1C2.33333 11.7333 3.10433 13.1667 4.413 14.3C5.72167 15.4333 7.25067 16 9 16C10.95 16 12.6043 15.321 13.963 13.963C15.3217 12.605 16.0007 10.9507 16 9C16 7.05 15.321 5.396 13.963 4.038C12.605 2.68 10.9507 2.00067 9 2C7.85 2 6.775 2.26667 5.775 2.8C4.775 3.33333 3.93333 4.06667 3.25 5H6V7H0V1H2V3.35C2.85 2.28333 3.88767 1.45833 5.113 0.875C6.33833 0.291667 7.634 0 9 0C10.25 0 11.421 0.237667 12.513 0.713C13.605 1.18833 14.555 1.82967 15.363 2.637C16.171 3.44567 16.8127 4.39567 17.288 5.487C17.7633 6.57833 18.0007 7.74933 18 9C18 10.25 17.7627 11.421 17.288 12.513C16.8133 13.605 16.1717 14.555 15.363 15.363C14.5543 16.171 13.6043 16.8127 12.513 17.288C11.4217 17.7633 10.2507 18.0007 9 18Z" fill="#FEFAFF"/>
</svg>
