<svg width="25" height="24" viewBox="0 0 25 24" fill="none" xmlns="http://www.w3.org/2000/svg">
<path d="M12.5459 21C10.0459 21 7.9209 20.125 6.1709 18.375C4.4209 16.625 3.5459 14.5 3.5459 12C3.5459 9.5 4.4209 7.375 6.1709 5.625C7.9209 3.875 10.0459 3 12.5459 3C12.7792 3 13.0086 3.00833 13.2339 3.025C13.4592 3.04167 13.6799 3.06667 13.8959 3.1C13.2126 3.58333 12.6666 4.21267 12.2579 4.988C11.8492 5.76333 11.6452 6.60067 11.6459 7.5C11.6459 9 12.1709 10.275 13.2209 11.325C14.2709 12.375 15.5459 12.9 17.0459 12.9C17.9626 12.9 18.8042 12.6957 19.5709 12.287C20.3376 11.8783 20.9626 11.3327 21.4459 10.65C21.4792 10.8667 21.5042 11.0873 21.5209 11.312C21.5376 11.5367 21.5459 11.766 21.5459 12C21.5459 14.5 20.6709 16.625 18.9209 18.375C17.1709 20.125 15.0459 21 12.5459 21Z" fill="#270C31"/>
</svg>
