<svg width="25" height="24" viewBox="0 0 25 24" fill="none" xmlns="http://www.w3.org/2000/svg">
<g clip-path="url(#clip0_606_2993)">
<path d="M16.5 4C16.7549 4.00028 17 4.09788 17.1854 4.27285C17.3707 4.44782 17.4822 4.68695 17.4972 4.94139C17.5121 5.19584 17.4293 5.44638 17.2657 5.64183C17.1021 5.83729 16.8701 5.9629 16.617 5.993L16.5 6H6C5.87505 5.99977 5.75455 6.04633 5.66222 6.13051C5.56988 6.21469 5.51241 6.33039 5.50112 6.45482C5.48984 6.57926 5.52554 6.70341 5.60122 6.80283C5.6769 6.90225 5.78705 6.96974 5.91 6.992L6 7H19.5C20.0046 6.99984 20.4906 7.19041 20.8605 7.5335C21.2305 7.87659 21.4572 8.34685 21.495 8.85L21.5 9V18C21.5002 18.5046 21.3096 18.9906 20.9665 19.3605C20.6234 19.7305 20.1532 19.9572 19.65 19.995L19.5 20H5.5C4.99542 20.0002 4.50943 19.8096 4.13945 19.4665C3.76947 19.1234 3.54284 18.6532 3.505 18.15L3.5 18V6.5C3.4999 5.86528 3.74123 5.25429 4.17504 4.79095C4.60885 4.32762 5.20265 4.04664 5.836 4.005L6 4H16.5ZM5.5 8.95V18H19.5V9H6C5.886 9 5.773 8.992 5.663 8.978L5.5 8.95ZM16 12C16.3978 12 16.7794 12.158 17.0607 12.4393C17.342 12.7206 17.5 13.1022 17.5 13.5C17.5 13.8978 17.342 14.2794 17.0607 14.5607C16.7794 14.842 16.3978 15 16 15C15.6022 15 15.2206 14.842 14.9393 14.5607C14.658 14.2794 14.5 13.8978 14.5 13.5C14.5 13.1022 14.658 12.7206 14.9393 12.4393C15.2206 12.158 15.6022 12 16 12Z" fill="#1A1A1B"/>
</g>
<defs>
<clipPath id="clip0_606_2993">
<rect width="24" height="24" fill="white" transform="translate(0.5)"/>
</clipPath>
</defs>
</svg>
