<svg width="17" height="17" viewBox="0 0 17 17" fill="none" xmlns="http://www.w3.org/2000/svg">
<path d="M1.68333 16.1492C1.44956 16.1488 1.22672 16.0502 1.06916 15.8775C0.908699 15.7062 0.828965 15.4746 0.849995 15.2408L1.05416 12.9958L10.4858 3.5675L13.4333 6.51417L4.00416 15.9417L1.75916 16.1458C1.73333 16.1483 1.70749 16.1492 1.68333 16.1492ZM14.0217 5.925L11.075 2.97834L12.8425 1.21084C12.9988 1.05436 13.2109 0.966431 13.4321 0.966431C13.6533 0.966431 13.8654 1.05436 14.0217 1.21084L15.7892 2.97834C15.9456 3.13464 16.0336 3.34675 16.0336 3.56792C16.0336 3.78909 15.9456 4.0012 15.7892 4.1575L14.0225 5.92417L14.0217 5.925Z" fill="#2E3A59"/>
</svg>
