<svg width="29" height="39" viewBox="0 0 29 39" fill="none" xmlns="http://www.w3.org/2000/svg">
<path d="M11.7651 28.2344V27.8733C11.7651 27.5725 11.8186 27.2984 11.9256 27.051C12.0326 26.8036 12.1797 26.5763 12.3669 26.369C12.5541 26.1618 12.7613 25.9646 12.9886 25.7774C13.2159 25.5902 13.45 25.4096 13.6906 25.2358C13.9648 25.0285 14.2222 24.8246 14.4628 24.6241C14.7102 24.4235 14.9108 24.2095 15.0646 23.9822C15.2183 23.7482 15.2952 23.4908 15.2952 23.21C15.2952 23.0763 15.2618 22.9426 15.1949 22.8089C15.1281 22.6752 15.0211 22.5648 14.874 22.4779C14.7336 22.3843 14.5431 22.3375 14.3024 22.3375C14.055 22.3375 13.8511 22.381 13.6906 22.4679C13.5302 22.5481 13.4065 22.6651 13.3196 22.8189C13.2393 22.966 13.1992 23.1498 13.1992 23.3705V23.7315H11.8554C11.8487 23.6981 11.842 23.6513 11.8353 23.5911C11.8287 23.5309 11.8253 23.4574 11.8253 23.3705C11.8253 22.8824 11.9356 22.4813 12.1563 22.167C12.3836 21.8528 12.6878 21.6188 13.0689 21.465C13.4566 21.3113 13.8946 21.2344 14.3826 21.2344C14.8239 21.2344 15.1916 21.2979 15.4858 21.4249C15.7866 21.5453 16.0273 21.7091 16.2078 21.9163C16.3883 22.1169 16.5154 22.3375 16.5889 22.5782C16.6691 22.8122 16.7093 23.0395 16.7093 23.2602C16.7093 23.5744 16.6524 23.8619 16.5388 24.1226C16.4251 24.3834 16.2713 24.6274 16.0775 24.8547C15.8836 25.082 15.6529 25.3027 15.3855 25.5166C15.1181 25.7239 14.8339 25.9311 14.533 26.1384C14.3793 26.2454 14.2322 26.349 14.0918 26.4493C13.9581 26.5496 13.8411 26.6465 13.7408 26.7401C13.6472 26.827 13.5736 26.9139 13.5202 27.0009H16.7594V28.2344H11.7651Z" fill="#ba9756"/>
<path fill-rule="evenodd" clip-rule="evenodd" d="M9.62909 0.607422L5.44336 3.02405L12.4919 15.2324L14.8872 13.8495L17.2825 15.2324L24.331 3.02405L20.1453 0.607422L14.8872 9.71474L9.62909 0.607422Z" fill="url(#paint0_linear_3208_821)"/>
<path d="M14.5724 10.9277C6.96136 10.9277 0.764648 17.1238 0.764648 24.7355C0.764648 32.3465 6.96069 38.5432 14.5724 38.5432C22.1834 38.5432 28.3801 32.3472 28.3801 24.7355C28.3801 17.1244 22.1812 10.9277 14.5724 10.9277ZM20.0564 32.1955L14.5724 29.3154L9.07674 32.1955L10.1288 26.0837L5.68519 21.7593L11.8289 20.8671L14.5724 15.3075L17.3159 20.8671L23.448 21.7593L19.0043 26.0837L20.0564 32.1955Z" fill="url(#paint1_linear_3208_821)"/>
<defs>
<linearGradient id="paint0_linear_3208_821" x1="16.1969" y1="0.607422" x2="15.5181" y2="15.2616" gradientUnits="userSpaceOnUse">
<stop stop-color="#1ACFF6"/>
<stop offset="0.520201" stop-color="#766AFF"/>
<stop offset="1" stop-color="#9718E5"/>
</linearGradient>
<linearGradient id="paint1_linear_3208_821" x1="2.89555" y1="20.49" x2="40.7375" y2="21.2332" gradientUnits="userSpaceOnUse">
<stop stop-color="#CCCCCC"/>
<stop offset="0.607459" stop-color="#766AFF"/>
<stop offset="1" stop-color="#9718E5"/>
</linearGradient>
</defs>
</svg>
