<svg width="43" height="37" viewBox="0 0 43 37" fill="none" xmlns="http://www.w3.org/2000/svg">
<path d="M34.5094 30.9785C25.8523 33.4132 16.6736 33.4132 8.01651 30.9785C7.12551 30.7281 6.17782 31.1849 5.88953 32.0358C5.60121 32.8845 6.14241 33.8236 7.10663 34.0949C16.3567 36.6965 26.1694 36.6965 35.4194 34.0949C36.3837 33.8236 36.9248 32.8845 36.6365 32.0358C36.3505 31.1849 35.4005 30.7281 34.5095 30.9785H34.5094ZM8.34261 32.7524C8.27171 33.026 8.00229 33.2161 7.68799 33.2161C7.61709 33.2161 7.54383 33.2068 7.47293 33.186C7.27441 33.1303 7.10661 33.0028 7.01444 32.8335C6.93173 32.6851 6.91518 32.5205 6.96245 32.3675C7.04989 32.0938 7.31695 31.9107 7.62657 31.9107C7.69511 31.9107 7.76601 31.9199 7.83454 31.9385C8.20559 32.0428 8.43483 32.4069 8.34266 32.7524L8.34261 32.7524ZM11.3228 33.4411C11.2661 33.7332 10.9848 33.9442 10.6539 33.9442C10.5972 33.9442 10.5405 33.9373 10.4861 33.9257C10.2876 33.8839 10.1127 33.7657 10.0111 33.6057C9.92131 33.4619 9.89059 33.2973 9.93077 33.1419C10.004 32.8498 10.2829 32.6434 10.609 32.6434C10.6634 32.6434 10.7178 32.6504 10.7697 32.6596C11.1432 32.7431 11.3913 33.0932 11.3228 33.4411H11.3228ZM14.3337 33.9489C14.2935 34.2596 13.9981 34.4938 13.6507 34.4938C13.6105 34.4938 13.5703 34.4914 13.5302 34.4845C13.3269 34.4543 13.152 34.35 13.0386 34.1946C12.9393 34.0578 12.8991 33.8932 12.9299 33.7355C12.9866 33.4225 13.2773 33.1953 13.6199 33.1953C13.6578 33.1953 13.6979 33.1976 13.7358 33.2045C14.1115 33.2625 14.3786 33.5964 14.3337 33.9488L14.3337 33.9489ZM16.671 34.8624C16.6474 34.8624 16.6214 34.8601 16.5978 34.8601C16.3922 34.8416 16.2125 34.7488 16.0897 34.6004C15.9809 34.4683 15.9313 34.3083 15.9526 34.1483C15.9928 33.8167 16.2929 33.5663 16.6497 33.5663C16.6734 33.5663 16.6946 33.5686 16.7183 33.5686C17.0988 33.6034 17.3871 33.921 17.3635 34.2758C17.3398 34.6051 17.035 34.8624 16.671 34.8624L16.671 34.8624ZM19.7032 35.0479H19.6772C19.4716 35.041 19.2872 34.9598 19.1572 34.8207C19.0414 34.6955 18.9824 34.5378 18.9918 34.3778C19.0107 34.0277 19.3203 33.7541 19.6961 33.7541H19.7197C20.1002 33.7657 20.4098 34.0648 20.4075 34.4219C20.4027 34.7651 20.086 35.0479 19.7032 35.0479H19.7032ZM23.2813 34.823C23.1489 34.9622 22.9646 35.0433 22.7613 35.0503H22.7377C22.3525 35.0503 22.0358 34.7674 22.0358 34.4196C22.0334 34.0625 22.343 33.7657 22.7235 33.7541H22.7448C23.1205 33.7541 23.4301 34.03 23.4491 34.3802C23.4585 34.5401 23.3971 34.6978 23.2813 34.823H23.2813ZM26.3489 34.6097C26.226 34.7581 26.0464 34.8509 25.8408 34.8694C25.8171 34.8717 25.7935 34.8717 25.7675 34.8717C25.4012 34.8717 25.0963 34.612 25.0751 34.2828C25.0514 33.928 25.3398 33.6103 25.7202 33.5779C25.7415 33.5756 25.7651 33.5756 25.7888 33.5756C26.148 33.5756 26.4481 33.826 26.4859 34.1576C26.5048 34.3175 26.4576 34.4775 26.3489 34.6097H26.3489ZM29.3999 34.2109C29.2865 34.3662 29.1116 34.4706 28.9084 34.5007C28.8682 34.5077 28.828 34.51 28.7878 34.51C28.4404 34.51 28.145 34.2758 28.1048 33.9628C28.0599 33.6103 28.3294 33.2765 28.7075 33.2185C28.7453 33.2138 28.7831 33.2092 28.8209 33.2092C29.1636 33.2092 29.4543 33.4364 29.511 33.7495C29.5394 33.9095 29.4992 34.0718 29.3999 34.2109H29.3999ZM32.4297 33.6266C32.3257 33.7866 32.1532 33.9048 31.9547 33.9465C31.898 33.9581 31.8436 33.9651 31.7869 33.9651C31.456 33.9651 31.1748 33.7518 31.1157 33.4596C31.0472 33.1095 31.2977 32.7594 31.6735 32.6805C31.7254 32.6689 31.7798 32.6643 31.8318 32.6643C32.1579 32.6643 32.4368 32.8707 32.5101 33.1628C32.5479 33.3182 32.5195 33.4828 32.4297 33.6266L32.4297 33.6266ZM35.4264 32.8567C35.3342 33.0237 35.1665 33.1535 34.9679 33.2092C34.897 33.2277 34.8261 33.2393 34.7529 33.2393C34.4385 33.2393 34.1691 33.0492 34.0982 32.7756C34.0084 32.4301 34.2377 32.0661 34.6087 31.964C34.6749 31.9455 34.7458 31.9362 34.8143 31.9362C35.1263 31.9362 35.391 32.1194 35.4785 32.393C35.5257 32.5437 35.5092 32.7106 35.4265 32.8567L35.4264 32.8567ZM6.07364 27.9457C5.88929 28.4883 6.22489 29.0865 6.82518 29.2628C16.2428 32.0383 26.2848 32.0383 35.7024 29.2628C36.3027 29.0865 36.6383 28.4883 36.454 27.9457C36.3098 27.5144 35.8962 27.2408 35.4495 27.2315L42.438 10.1123L38.3187 13.0664C38.4393 13.3586 38.5078 13.6901 38.5078 14.0402C38.5078 15.2205 37.7374 16.1781 36.7849 16.1781C35.8349 16.1781 35.0644 15.2205 35.0644 14.0402C35.0644 13.0965 35.5559 12.2942 36.2413 12.0113L33.3864 5.09717L29.5081 10.938C30.5267 11.4017 31.2546 12.6167 31.2546 14.0428C31.2546 15.8676 30.0635 17.3493 28.5935 17.3493C27.1235 17.3493 25.9324 15.8699 25.9324 14.0428C25.9324 12.7234 26.5563 11.5826 27.4568 11.0539L21.2627 0.753906L15.071 11.0516C15.9714 11.5802 16.5953 12.721 16.5953 14.0404C16.5953 15.8652 15.4041 17.3469 13.9342 17.3469C12.4642 17.3469 11.2731 15.8676 11.2731 14.0404C11.2731 12.6144 11.9986 11.3994 13.0196 10.9356L9.14613 5.09479L6.2912 12.009C6.9742 12.2918 7.46813 13.0941 7.46813 14.0379C7.46813 15.2181 6.69771 16.1758 5.74524 16.1758C4.79518 16.1758 4.02234 15.2181 4.02234 14.0379C4.02234 13.6877 4.09088 13.3562 4.21141 13.064L0.0874023 10.1123L7.0759 27.2315C6.62923 27.2431 6.21799 27.5144 6.07388 27.9456L6.07364 27.9457Z" fill="url(#paint0_linear_3208_821)"/>
<path d="M15.5894 20.7548L21.2622 11.5078L26.9351 20.7548L21.2622 28.9389L15.5894 20.7548Z" fill="#FFEA7D"/>
<path d="M19.1353 23.9281V22.72H20.9043V18.3513H19.1245V17.4452C19.3618 17.4237 19.6351 17.3697 19.9443 17.2834C20.2607 17.19 20.5771 17.0785 20.8935 16.949C21.21 16.8124 21.494 16.6686 21.7457 16.5176H22.4145V22.72H24.0649V23.9281H19.1353Z" fill="#F19090"/>
<defs>
<linearGradient id="paint0_linear_3208_821" x1="5.33332" y1="18.4004" x2="54.6301" y2="25.2428" gradientUnits="userSpaceOnUse">
<stop stop-color="#FFEA7D"/>
<stop offset="0.527145" stop-color="#F19090"/>
<stop offset="1" stop-color="#ba9756"/>
</linearGradient>
</defs>
</svg>
