<svg width="49" height="48" viewBox="0 0 49 48" fill="none" xmlns="http://www.w3.org/2000/svg">
<circle cx="24.2622" cy="24" r="24" fill="white"/>
<path d="M24.2915 32.2363C23.7394 32.2363 23.276 32.1509 22.9014 31.98C22.5267 31.8091 22.2441 31.5725 22.0535 31.2701C21.8629 30.9678 21.7676 30.6194 21.7676 30.2251V30.0575H23.0986V30.2448C23.0986 30.534 23.1939 30.7607 23.3845 30.9251C23.5817 31.0894 23.8643 31.1715 24.2324 31.1715C24.5873 31.1715 24.8634 31.0894 25.0605 30.9251C25.2577 30.7607 25.3563 30.5077 25.3563 30.1659C25.3563 29.9096 25.3037 29.7124 25.1986 29.5744C25.0934 29.4363 24.9554 29.3377 24.7845 29.2786C24.6202 29.2194 24.4394 29.1898 24.2422 29.1898H23.6408V28.1546H24.2324C24.4164 28.1546 24.5807 28.1218 24.7253 28.056C24.8765 27.9837 24.9948 27.8786 25.0803 27.7406C25.1723 27.6025 25.2183 27.4251 25.2183 27.2082C25.2183 27.0044 25.1756 26.8368 25.0901 26.7053C25.0112 26.5673 24.8962 26.4654 24.745 26.3997C24.6004 26.334 24.4328 26.3011 24.2422 26.3011C24.0516 26.3011 23.8774 26.334 23.7197 26.3997C23.5685 26.4654 23.4502 26.564 23.3648 26.6955C23.2793 26.8269 23.2366 26.9913 23.2366 27.1884V27.3363H21.9253V27.0898C21.9253 26.7218 22.0206 26.3997 22.2112 26.1237C22.4084 25.841 22.6845 25.6241 23.0394 25.4729C23.3943 25.3152 23.8051 25.2363 24.2718 25.2363C24.7385 25.2363 25.146 25.3086 25.4943 25.4532C25.8493 25.5978 26.122 25.8114 26.3126 26.0941C26.5098 26.3701 26.6084 26.6988 26.6084 27.08C26.6084 27.3363 26.5591 27.5631 26.4605 27.7603C26.3685 27.9575 26.2436 28.1251 26.0859 28.2631C25.9281 28.3945 25.7474 28.5063 25.5436 28.5983V28.6377C25.8986 28.7429 26.1878 28.9368 26.4112 29.2194C26.6413 29.4955 26.7563 29.8537 26.7563 30.2941C26.7497 30.6884 26.6446 31.0302 26.4408 31.3194C26.2436 31.6086 25.961 31.8354 25.5929 31.9997C25.2249 32.1575 24.7911 32.2363 24.2915 32.2363Z" fill="#F19090"/>
<path fill-rule="evenodd" clip-rule="evenodd" d="M19.6291 4.60742L15.4434 7.02405L22.4919 19.2324L24.8872 17.8495L27.2825 19.2324L34.331 7.02405L30.1453 4.60742L24.8872 13.7147L19.6291 4.60742Z" fill="url(#paint0_linear_3208_821)"/>
<path d="M24.5724 14.9277C16.9614 14.9277 10.7646 21.1238 10.7646 28.7355C10.7646 36.3465 16.9607 42.5432 24.5724 42.5432C32.1834 42.5432 38.3801 36.3472 38.3801 28.7355C38.3801 21.1244 32.1812 14.9277 24.5724 14.9277ZM30.0564 36.1955L24.5724 33.3154L19.0767 36.1955L20.1288 30.0837L15.6852 25.7593L21.8289 24.8671L24.5724 19.3075L27.3159 24.8671L33.448 25.7593L29.0043 30.0837L30.0564 36.1955Z" fill="url(#paint1_linear_3208_821)"/>
<defs>
<linearGradient id="paint0_linear_3208_821" x1="26.1969" y1="4.60742" x2="25.5181" y2="19.2616" gradientUnits="userSpaceOnUse">
<stop stop-color="#1ACFF6"/>
<stop offset="0.520201" stop-color="#766AFF"/>
<stop offset="1" stop-color="#9718E5"/>
</linearGradient>
<linearGradient id="paint1_linear_3208_821" x1="-1.22894" y1="28.7355" x2="38.5564" y2="27.7423" gradientUnits="userSpaceOnUse">
<stop stop-color="#FFEA7D"/>
<stop offset="0.527145" stop-color="#F19090"/>
<stop offset="1" stop-color="#ba9756"/>
</linearGradient>
</defs>
</svg>
