<?xml version="1.0" standalone="no"?>
<!DOCTYPE svg PUBLIC "-//W3C//DTD SVG 20010904//EN"
 "http://www.w3.org/TR/2001/REC-SVG-20010904/DTD/svg10.dtd">
<svg version="1.0" xmlns="http://www.w3.org/2000/svg"
 width="1563.000000pt" height="1563.000000pt" viewBox="0 0 1563.000000 1563.000000"
 preserveAspectRatio="xMidYMid meet">
<metadata>
Created by potrace 1.14, written by Peter Selinger 2001-2017
</metadata>
<g transform="translate(0.000000,1563.000000) scale(0.100000,-0.100000)"
fill="#000000" stroke="none">
<path d="M0 7815 l0 -7815 7815 0 7815 0 0 7815 0 7815 -7815 0 -7815 0 0
-7815z m8832 2234 c104 -35 207 -112 265 -200 25 -38 28 -39 82 -39 158 0 338
-41 461 -106 171 -90 280 -248 317 -464 19 -108 13 -343 -16 -560 -11 -85 -25
-232 -32 -326 -14 -198 -12 -210 61 -288 25 -27 108 -97 185 -156 211 -161
276 -242 261 -323 -10 -54 -87 -138 -216 -237 -178 -137 -255 -204 -281 -246
-23 -37 -23 -38 -11 -208 7 -94 22 -243 34 -331 16 -119 22 -213 22 -365 1
-186 -1 -213 -22 -285 -33 -115 -77 -196 -143 -269 -140 -152 -311 -213 -629
-223 l-176 -6 -1323 1964 c-728 1080 -1330 1970 -1337 1978 -33 36 -141 -101
-166 -208 -19 -81 -14 -293 10 -446 31 -198 45 -353 41 -473 -4 -98 -7 -114
-37 -175 -40 -81 -96 -140 -222 -234 -122 -91 -157 -126 -171 -174 -11 -34 -9
-44 13 -86 18 -37 47 -65 124 -123 223 -168 284 -257 292 -431 5 -108 -9 -284
-38 -479 -39 -255 -36 -390 11 -516 29 -77 96 -144 172 -173 93 -34 107 -31
142 37 43 83 135 171 225 215 233 115 515 42 656 -169 141 -214 113 -491 -69
-660 -104 -98 -219 -144 -358 -144 -178 0 -343 91 -435 240 l-35 57 -102 7
c-228 14 -401 76 -518 184 -111 101 -173 228 -200 402 -15 99 -6 359 20 563
11 87 26 229 32 316 17 225 23 216 -276 448 -72 55 -145 117 -163 137 -41 46
-72 108 -72 141 0 67 85 161 270 299 130 97 205 169 232 221 19 35 20 50 14
155 -9 143 -21 268 -43 430 -25 178 -25 501 0 590 61 223 211 376 437 448 103
33 174 43 350 49 l165 6 225 -334 c124 -184 392 -581 596 -884 1104 -1639
1828 -2711 1838 -2723 30 -32 130 87 162 193 23 76 23 278 1 415 -45 272 -61
570 -34 646 38 106 99 177 246 287 115 87 158 130 170 172 20 75 -17 125 -183
250 -125 93 -174 146 -214 232 -46 100 -43 292 10 643 29 192 29 373 0 467
-30 97 -72 150 -152 191 -36 18 -81 35 -100 38 -35 5 -35 5 -65 -63 -34 -77
-119 -174 -193 -221 -120 -77 -299 -99 -432 -53 -186 64 -309 208 -348 404
-48 244 98 492 338 574 89 31 244 32 332 2z m1932 -258 c51 -25 100 -77 138
-148 15 -27 83 -205 153 -398 70 -192 138 -371 151 -397 30 -59 57 -78 111
-78 l43 0 0 -89 c0 -50 -4 -93 -10 -96 -5 -3 -37 -11 -71 -16 -129 -21 -218
23 -271 133 -14 29 -54 139 -89 245 -35 106 -66 192 -69 193 -3 0 -13 -28 -23
-63 -10 -34 -60 -160 -110 -279 l-92 -218 -122 0 c-68 0 -123 3 -123 6 0 4 83
193 185 420 l185 414 -21 52 c-48 123 -86 151 -197 147 l-67 -3 -3 97 c-3 93
-2 97 20 102 81 18 219 6 282 -24z m-6132 -3362 l3 -422 170 196 170 196 154
0 155 1 -30 -32 c-17 -18 -93 -103 -169 -188 -76 -85 -154 -172 -173 -192
l-35 -37 174 -198 c95 -109 202 -231 237 -270 l64 -73 -160 0 -161 0 -198 245
-198 246 -3 -246 -2 -245 -130 0 -130 0 0 720 0 720 130 0 130 0 2 -421z
m-392 -129 l0 -101 -83 -92 c-45 -51 -160 -178 -255 -284 -95 -105 -172 -194
-172 -197 0 -3 117 -6 260 -6 l260 0 0 -105 0 -105 -405 0 -405 0 0 104 0 103
250 284 250 284 -250 3 -250 2 0 105 0 105 400 0 400 0 0 -100z"/>
<path d="M8586 9795 c-59 -21 -108 -65 -139 -126 -25 -47 -28 -62 -24 -119 9
-133 93 -224 222 -237 140 -15 275 104 275 242 0 172 -174 297 -334 240z"/>
<path d="M6855 5856 c-240 -113 -160 -469 105 -470 146 -1 262 125 247 269
-18 173 -196 275 -352 201z"/>
</g>
</svg>
